<?xml version="1.0" encoding="utf-8" ?><svg xmlns="http://www.w3.org/2000/svg" xmlns:xlink="http://www.w3.org/1999/xlink" width="1024" height="1024" viewBox="0 0 1024 1024"><path fill="#FEFEFE" d="M0 0L1024 0L1024 1024L0 1024L0 0Z"/><path fill="#F7F6F5" d="M302.727 52.7661C312.663 52.3891 323.022 52.6441 333 52.6261C353.266 52.4036 373.534 52.4804 393.798 52.8565C402.637 52.9562 411.526 52.5904 420.375 52.5863L471.838 52.8712L772.053 52.9585C824.674 53.0471 875.071 74.1848 912.012 111.66C937.809 137.588 958.607 177.004 965.831 212.807C971.638 241.59 969.887 272.881 969.732 302.353L969.573 399.399L969.633 776.409C969.416 826.972 946.829 877.656 910.997 913.084C876.796 946.304 832.106 966.596 784.586 970.482C764.539 972.263 740.656 971.543 720.25 971.402L483.398 971.406L344.744 971.068L283.788 971.106C272.187 971.12 258.828 971.467 247.378 970.885C217.563 969.458 188.43 961.466 162.06 947.48C143.918 938.092 127.313 925.993 112.818 911.6C85.0395 884.245 66.0681 849.214 58.3383 811.001C53.5708 788.334 54.9117 761.784 54.8852 738.309L54.9074 644.676L54.9176 259.811C54.8792 250.09 55.0617 241.127 56.0017 231.447C60.2909 187.274 81.8713 143.463 113.348 112.071C146.586 79.4096 189.921 58.991 236.268 54.153C256.156 52.1577 282.177 52.8248 302.727 52.7661Z"/><path fill="#F7F6F5" d="M192.38 327.356C278.296 178.338 455.759 108.425 620.228 158.804C784.697 209.182 892.56 366.493 880.276 538.065C868.698 699.785 752.935 835.013 594.934 871.387C436.933 907.761 273.694 836.763 192.568 696.385C126.602 582.237 126.53 441.571 192.38 327.356Z"/><path fill="#F3836F" d="M192.38 327.356C278.296 178.338 455.759 108.425 620.228 158.804C784.697 209.182 892.56 366.493 880.276 538.065C868.563 537.789 854.899 537.976 843.421 537.097C855.027 384.679 761.12 244.015 615.901 196.293C470.681 148.572 311.641 206.113 230.574 335.705C225.86 338.874 206.282 379.026 203.137 386.631C201.933 389.543 199.063 399.597 197.492 401.886C195.86 402.117 195.521 402.134 193.837 401.73C191.913 402.844 190.074 404.01 188.192 405.19C187.425 405.074 186.981 404.926 186.269 404.651C181.823 407.777 180.913 410.409 178.154 414.818C177.397 416.259 176.42 416.71 174.814 416.955C171.875 417.402 172.07 418.06 171.067 420.503C168.245 423.032 157.4 425.548 154.337 422.871C153.245 420.345 156.247 413.624 157.163 410.578C162.25 393.097 168.66 376.029 176.337 359.521C178.692 354.431 191.66 331.329 192.38 327.356Z"/><defs><linearGradient id="gradient_0" gradientUnits="userSpaceOnUse" x1="764.42084" y1="795.03613" x2="329.23938" y2="499.51086"><stop offset="0" stop-color="#2AB2AA"/><stop offset="1" stop-color="#76B79F"/></linearGradient></defs><path fill="url(#gradient_0)" d="M843.421 537.097C854.899 537.976 868.563 537.789 880.276 538.065C868.698 699.785 752.935 835.013 594.934 871.387C436.933 907.761 273.694 836.763 192.568 696.385C195.157 696.862 196.232 703.012 199.201 705.806C197.641 699.284 203.597 696.993 208.194 694.163C211.297 686.841 211.91 673.11 215.9 666.829L216.637 666.722C219.398 668.509 218.46 671.095 221.682 672.961C292.838 801.287 439.76 867.727 583.111 836.401C726.463 805.076 832.279 683.408 843.421 537.097Z"/><defs><linearGradient id="gradient_1" gradientUnits="userSpaceOnUse" x1="196.90009" y1="401.49072" x2="168.88834" y2="703.20435"><stop offset="0" stop-color="#E59977"/><stop offset="1" stop-color="#6EBCA2"/></linearGradient></defs><path fill="url(#gradient_1)" d="M192.568 696.385C126.602 582.237 126.53 441.571 192.38 327.356C191.66 331.329 178.692 354.431 176.337 359.521C168.66 376.029 162.25 393.097 157.163 410.578C156.247 413.624 153.245 420.345 154.337 422.871C157.4 425.548 168.245 423.032 171.067 420.503C172.07 418.06 171.875 417.402 174.814 416.955C176.42 416.71 177.397 416.259 178.154 414.818C180.913 410.409 181.823 407.777 186.269 404.651C186.981 404.926 187.425 405.074 188.192 405.19C190.074 404.01 191.913 402.844 193.837 401.73C195.521 402.134 195.86 402.117 197.492 401.886C199.063 399.597 201.933 389.543 203.137 386.631C206.282 379.026 225.86 338.874 230.574 335.705C166.495 438.141 163.09 567.291 221.682 672.961C218.46 671.095 219.398 668.509 216.637 666.722L215.9 666.829C211.91 673.11 211.297 686.841 208.194 694.163C203.597 696.993 197.641 699.284 199.201 705.806C196.232 703.012 195.157 696.862 192.568 696.385Z"/><defs><linearGradient id="gradient_2" gradientUnits="userSpaceOnUse" x1="255.39496" y1="428.85321" x2="485.1474" y2="653.69098"><stop offset="0" stop-color="#A2B091"/><stop offset="1" stop-color="#56BCA1"/></linearGradient></defs><path fill="url(#gradient_2)" d="M253.448 329.302C246.487 372.007 254.722 401.742 275.809 438.09C279.287 442.746 282.061 447.403 285.837 451.875C314.168 485.424 356.157 511.568 400.094 517.303C421.883 520.146 446.754 519.536 468.964 519.512L564.899 519.373C577.998 519.368 605.537 518.733 617.508 520.69C607.884 523.398 598.116 524.875 588.569 528.068C563.693 536.389 536.009 554.95 515.758 571.354C500.794 583.475 487.385 596.992 474.801 611.555C466.469 621.198 458.702 631.27 449.996 640.597C417.309 675.617 373.829 698.502 325.233 698.579C301.286 698.617 278.63 693.425 256.62 684.196C252.502 682.469 248.071 680.839 244.189 678.635C232.03 671.731 210.004 611.456 206.015 595.703C200.477 573.83 194.588 543.259 195.401 520.637C194.333 511.28 195.554 492.078 196.43 482.517C201.656 425.465 220.764 376.126 253.448 329.302Z"/><defs><linearGradient id="gradient_3" gradientUnits="userSpaceOnUse" x1="194.4422" y1="368.86502" x2="253.68263" y2="460.55432"><stop offset="0" stop-color="#E39A78"/><stop offset="1" stop-color="#A5AE90"/></linearGradient></defs><path fill="url(#gradient_3)" d="M253.448 329.302C246.487 372.007 254.722 401.742 275.809 438.09L275.092 437.538C273.466 436.264 272.29 433.764 269.968 433.832C267.564 433.902 263.332 436.575 261.101 437.727C251.933 444.083 242.446 449.958 233.462 456.53C230.835 458.453 223.606 462.365 221.722 464.187C211.823 473.757 204.947 486.654 197.026 497.635L196.277 496.812C195.456 504.713 196.215 512.628 195.401 520.637C194.333 511.28 195.554 492.078 196.43 482.517C201.656 425.465 220.764 376.126 253.448 329.302Z"/><path fill="#F7F6F5" d="M368.474 559.104C393.289 557.278 414.929 575.812 416.939 600.612C418.949 625.412 400.576 647.189 375.792 649.383C350.746 651.6 328.689 632.991 326.657 607.929C324.626 582.868 343.398 560.949 368.474 559.104Z"/><path fill="#4BB6A3" d="M368.627 574.362C385.054 572.511 399.896 584.26 401.867 600.672C403.838 617.085 392.197 632.013 375.8 634.103C359.232 636.215 344.115 624.428 342.124 607.845C340.133 591.263 352.03 576.232 368.627 574.362Z"/><defs><linearGradient id="gradient_4" gradientUnits="userSpaceOnUse" x1="825.90717" y1="633.29669" x2="531.90912" y2="367.60358"><stop offset="0" stop-color="#F94A5D"/><stop offset="1" stop-color="#FB7269"/></linearGradient></defs><path fill="url(#gradient_4)" d="M694.029 325.212C720.693 324.337 744.357 330.635 768.625 341.085C786.041 348.584 785.339 349.525 793.964 366.268C812.315 401.769 823.56 440.511 827.07 480.321C832.991 539.142 822.603 598.458 797.045 651.766C790.947 664.754 778.452 686.938 769.335 697.946C772.594 681.483 773.543 665.706 771.398 648.809C767.112 615.047 749.843 581.232 726.603 556.463C720.516 549.976 711.745 543.075 704.772 537.59C687.638 523.729 656.598 511.528 635.036 507.662C609.575 503.096 581.396 504.437 555.391 504.469L471.101 504.54C449.045 504.562 428.338 504.859 406.323 503.652C410.469 502.283 416.706 501.17 421.132 500.101C428.692 498.269 436.135 495.982 443.419 493.253C478.981 479.649 524.584 443.472 547.931 413.582C587.867 362.455 625.088 328.74 694.029 325.212Z"/><path fill="#F7F6F5" d="M650.186 372.854C674.892 371.205 696.325 389.744 698.253 414.43C700.181 439.115 681.886 460.756 657.224 462.964C641.02 464.414 625.287 457.044 616.03 443.666C606.773 430.288 605.42 412.966 612.488 398.313C619.556 383.66 633.954 373.937 650.186 372.854Z"/><path fill="#F3836F" d="M650.095 387.437C666.916 385.767 681.914 398.029 683.62 414.847C685.325 431.665 673.093 446.689 656.279 448.429C639.416 450.174 624.338 437.898 622.628 421.031C620.918 404.164 633.224 389.113 650.095 387.437Z"/><path fill="#F3836F" d="M501.597 195.25C526.423 194.143 551.294 195.911 575.713 200.519C585.518 202.398 595.094 204.91 604.837 207.063C593.363 210.754 581.861 214.59 570.835 219.314C512.11 244.473 468.599 291.163 428.879 339.638C420.992 349.264 412.339 358.499 401.361 364.67C375.828 376.622 349.795 373.732 328.329 355.169C315.655 344.209 307.871 326.836 306.596 310.239C305.18 291.791 312.705 271.311 324.425 257.137C327.285 253.762 342.296 244.547 346.743 241.677C372.044 224.964 398.78 214.552 427.641 206.054C453.6 198.41 474.53 196.365 501.597 195.25Z"/><path fill="#4BB6A3" d="M651.278 653.211C669.665 651.511 691.647 662.475 702.705 676.352C722.875 701.666 720.764 732.84 704.229 759.274C701.909 762.983 699.305 767.757 695.647 770.249C683.915 778.242 672.289 786.354 659.469 792.536C608.689 819.451 546.21 833.216 488.88 827.374C465.83 825.35 443.016 821.204 420.728 814.987C475.2 803.707 525.127 765.955 561.498 725.158C569.29 716.33 576.886 707.332 584.281 698.17C604.99 672.053 615.005 655.819 651.278 653.211Z"/><defs><linearGradient id="gradient_5" gradientUnits="userSpaceOnUse" x1="607.90778" y1="398.92841" x2="314.02347" y2="238.01419"><stop offset="0" stop-color="#F87267"/><stop offset="1" stop-color="#F09376"/></linearGradient></defs><path fill="url(#gradient_5)" d="M630.098 218.194C639.404 216.933 684.912 244.32 693.988 250.852C624.467 251.404 562.318 284.633 515.12 334.337C502.835 346.678 492.358 361.41 480.458 373.962C441.758 414.782 376.71 458.459 318.691 436.906C298.208 429.461 281.621 414.024 272.728 394.127C267.025 381.052 265.202 365.255 266.441 350.756C267.936 333.271 273.226 309.253 282.776 294.331C284.614 291.459 291.614 285.452 294.381 283.013C291.649 293.13 291.327 304.472 292.54 314.851C295.268 336.512 306.462 356.212 323.676 369.641C351.348 391.341 390.094 391.921 418.403 371.059C432.107 360.863 447.19 339.596 459.267 326.379C476.953 307.022 494.689 286.716 515.279 270.271C547.407 244.611 588.963 223.056 630.098 218.194Z"/><path fill="#4BB6A3" d="M663.272 583.203C680.942 580.445 709.089 586.886 723.986 596.833C729.769 600.694 746.152 613.52 748.799 619.747C763.345 653.96 761.242 690.156 742.841 722.555C738.23 730.614 732.531 738.055 727.652 745.61C728.741 740.302 731.008 734.249 731.675 728.903C734.556 705.798 728.766 686.185 715.084 667.546C702.991 651.072 684.257 641.642 664.496 638.773C640.547 635.297 612.657 644.649 595.466 661.583C586.201 671.327 577.514 682.164 569.303 692.812C548.479 719.82 526.914 740.772 499.595 761.433C479.475 776.886 452.388 791.14 427.81 797.204C423.029 798.383 395.169 805.096 392.136 804.396C376.002 800.675 348.046 783.226 334.182 775.085C348.692 774.964 362.612 771.511 376.649 768.784C435.125 757.422 484.392 720.586 522.263 675.529C559.949 630.692 600.904 588.32 663.272 583.203Z"/><path fill="#4BB6A3" d="M623.936 535.793C667.69 530.75 702.35 550.067 729.182 583.204C722.879 580.276 718.529 577.354 711.545 574.74C685.898 565.144 660.034 566.199 633.981 573.113C588.438 585.201 556.508 614.328 525.883 648.523C515.16 660.495 506.236 672.495 494.62 684.098C482.56 696.146 470.009 707.154 456.304 717.337C428.608 737.913 393.373 751.374 359.396 756.959C347.027 759.271 327.178 760.205 314.521 760.497C298.087 749.842 265.555 716.393 256.11 699.761C279.798 711.05 311.735 715.178 337.775 712.971C378.987 709.849 417.831 692.493 447.651 663.875C463.975 648.075 477.582 630.833 492.796 614.286C524.911 579.357 574.843 539.75 623.936 535.793Z"/><defs><linearGradient id="gradient_6" gradientUnits="userSpaceOnUse" x1="681.91302" y1="464.43765" x2="393.37457" y2="291.87683"><stop offset="0" stop-color="#FD5D60"/><stop offset="1" stop-color="#F38570"/></linearGradient></defs><path fill="url(#gradient_6)" d="M692.72 265.71C699.465 265.46 706.402 265.618 713.168 265.681C728.781 277.479 745.655 296.228 757.915 311.41C761.189 315.465 765.672 320.733 768.365 325.097C763.622 323.727 757.717 321.025 752.742 319.417C736.559 314.184 721.405 311.213 704.524 310.53C650.181 308.331 599.874 332.366 563.887 372.505C546.06 392.388 531.398 411.894 511.524 430.612C484.89 455.697 454.586 477.957 417.852 485.432C404.882 488.071 391.735 488.328 378.566 487.944C345.466 484.938 320.947 469.28 299.681 444.439C333.141 460.244 355.164 461.327 390.734 450.533C430.563 438.447 462.465 413.587 491.183 384.145C501.226 373.528 509.488 361.888 519.318 351.011C553.382 313.321 595.81 283.931 645.508 271.517C660.285 267.826 677.479 266.506 692.72 265.71Z"/></svg>